<svg xmlns="http://www.w3.org/2000/svg" xmlns:xlink="http://www.w3.org/1999/xlink" width="500" zoomAndPan="magnify" viewBox="0 0 375 374.999991" height="500" preserveAspectRatio="xMidYMid meet" version="1.0"><defs><g/></defs><g fill="#b4918f" fill-opacity="1"><g transform="translate(65.21324, 220.107319)"><g><path d="M 60.617188 -54.195312 C 60.476562 -54.664062 59.960938 -54.945312 59.492188 -54.757812 C 56.210938 -53.726562 51.195312 -52.226562 45.429688 -50.445312 C 36.238281 -47.679688 24.753906 -44.210938 15.847656 -41.257812 C 10.921875 -39.570312 7.265625 -38.257812 4.6875 -37.179688 C 0.46875 -35.394531 -0.28125 -34.550781 -0.234375 -33.613281 C -0.1875 -33.144531 0.09375 -32.488281 1.359375 -32.253906 C 1.40625 -32.253906 1.453125 -32.253906 1.5 -32.253906 C 1.921875 -32.253906 2.296875 -32.535156 2.390625 -32.957031 C 2.484375 -33.332031 2.296875 -33.707031 2.015625 -33.894531 C 3.234375 -34.644531 6.796875 -36.332031 17.394531 -39.851562 C 19.832031 -40.648438 22.410156 -41.492188 25.035156 -42.335938 C 23.535156 -36.144531 21.378906 -26.535156 19.128906 -16.410156 C 15.988281 -2.203125 11.90625 16.175781 9.703125 23.863281 C 9.703125 23.300781 9.796875 22.691406 9.84375 21.941406 C 9.890625 21.472656 9.515625 21.003906 9 20.957031 C 8.53125 20.910156 8.109375 21.285156 8.0625 21.800781 C 7.5 27.847656 7.734375 28.832031 8.765625 28.972656 C 8.859375 28.972656 8.90625 29.019531 9 29.019531 C 9.84375 29.019531 10.359375 28.035156 11.390625 24.472656 C 12.046875 22.082031 12.941406 18.707031 14.066406 14.113281 C 16.082031 5.625 18.519531 -5.34375 20.910156 -16.035156 C 23.300781 -26.722656 25.550781 -36.898438 27.050781 -42.945312 C 33.472656 -44.960938 40.179688 -46.976562 45.945312 -48.710938 C 51.757812 -50.492188 56.726562 -51.992188 60.054688 -53.070312 C 60.523438 -53.210938 60.804688 -53.726562 60.617188 -54.195312 Z M 60.617188 -54.195312 "/></g></g></g><g fill="#b4918f" fill-opacity="1"><g transform="translate(90.619488, 220.107319)"><g><path d="M 19.597656 -10.40625 C 19.175781 -10.59375 18.613281 -10.40625 18.425781 -9.984375 C 14.863281 -2.71875 12.1875 -0.421875 10.921875 -0.65625 C 10.40625 -0.75 8.71875 -1.734375 8.296875 -9.9375 C 8.296875 -10.3125 8.015625 -10.640625 7.6875 -10.734375 C 7.3125 -10.828125 6.890625 -10.734375 6.703125 -10.40625 C 6.421875 -10.078125 6.140625 -9.703125 5.859375 -9.28125 C 4.6875 -7.6875 3.140625 -5.53125 1.265625 -3.515625 C 0.984375 -3.1875 0.75 -3 0.609375 -2.90625 C 0.28125 -4.546875 2.015625 -10.828125 4.78125 -12.800781 C 5.578125 -13.363281 6.65625 -13.785156 8.109375 -12.09375 C 8.4375 -11.71875 9 -11.671875 9.375 -12 C 9.75 -12.285156 9.796875 -12.894531 9.515625 -13.269531 C 7.734375 -15.332031 6.046875 -15.285156 4.921875 -14.910156 C 1.3125 -13.644531 -1.125 -6.703125 -1.21875 -3.515625 C -1.265625 -2.203125 -0.890625 -1.359375 -0.140625 -1.078125 C 1.03125 -0.609375 2.203125 -1.875 2.578125 -2.296875 C 4.171875 -4.03125 5.625 -5.90625 6.65625 -7.359375 C 7.171875 -2.015625 8.4375 0.65625 10.546875 1.125 C 10.734375 1.125 10.921875 1.171875 11.109375 1.171875 C 14.300781 1.171875 17.722656 -4.40625 20.019531 -9.1875 C 20.253906 -9.65625 20.066406 -10.171875 19.597656 -10.40625 Z M 19.597656 -10.40625 "/></g></g></g><g fill="#b4918f" fill-opacity="1"><g transform="translate(108.056987, 220.107319)"><g><path d="M 39.570312 -27.660156 C 38.960938 -28.503906 36.238281 -29.019531 7.125 -28.363281 C 8.0625 -32.160156 8.90625 -35.582031 9.65625 -38.351562 C 9.796875 -38.867188 9.515625 -39.335938 9.046875 -39.476562 C 8.578125 -39.617188 8.0625 -39.335938 7.921875 -38.867188 C 7.125 -35.910156 6.234375 -32.347656 5.25 -28.316406 C 2.671875 -28.269531 -0.140625 -28.222656 -3.1875 -28.128906 C -7.359375 -28.035156 -10.640625 -27.941406 -11.90625 -27.941406 C -12.425781 -27.941406 -12.847656 -27.519531 -12.847656 -27.050781 C -12.847656 -26.535156 -12.425781 -26.113281 -11.90625 -26.113281 C -10.59375 -26.160156 -7.3125 -26.207031 -3.140625 -26.347656 C -0.9375 -26.394531 1.78125 -26.441406 4.828125 -26.535156 C 2.8125 -18.003906 0.515625 -7.78125 -1.546875 2.203125 C -3.046875 9.515625 -4.265625 15.847656 -5.0625 20.488281 C -5.484375 22.925781 -5.765625 24.847656 -5.90625 26.160156 C -6.09375 27.941406 -6.1875 28.972656 -5.296875 29.300781 C -5.15625 29.300781 -5.0625 29.347656 -4.921875 29.347656 C -4.125 29.347656 -3.703125 28.222656 -3.328125 27.191406 C -3.140625 26.722656 -3.375 26.207031 -3.84375 26.019531 C -3.9375 26.019531 -3.984375 25.972656 -4.078125 25.972656 C -3.609375 22.316406 -2.203125 14.113281 0.515625 1.171875 C 2.53125 -8.625 4.734375 -18.425781 6.703125 -26.582031 C 19.597656 -26.863281 36.332031 -27.097656 38.257812 -26.441406 C 38.585938 -26.160156 39.007812 -26.160156 39.382812 -26.394531 C 39.757812 -26.675781 39.851562 -27.238281 39.570312 -27.660156 Z M 39.570312 -27.660156 "/></g></g></g><g fill="#b4918f" fill-opacity="1"><g transform="translate(114.291362, 220.107319)"><g><path d="M 13.691406 -10.640625 C 13.269531 -10.921875 12.753906 -10.78125 12.472656 -10.359375 C 9.328125 -5.296875 4.078125 -0.515625 2.484375 -1.171875 C 2.296875 -1.265625 0.796875 -2.15625 2.859375 -10.078125 C 2.953125 -10.59375 2.671875 -11.0625 2.203125 -11.203125 C 1.6875 -11.296875 1.21875 -11.015625 1.078125 -10.546875 C -0.609375 -3.9375 -0.375 -0.421875 1.734375 0.46875 C 2.0625 0.609375 2.390625 0.65625 2.71875 0.65625 C 6.234375 0.65625 11.625 -5.625 14.019531 -9.421875 C 14.253906 -9.84375 14.113281 -10.40625 13.691406 -10.640625 Z M 2.625 -14.441406 C 5.015625 -14.300781 4.96875 -17.300781 3.046875 -16.644531 C 2.0625 -16.363281 0.796875 -14.535156 2.625 -14.441406 Z M 2.625 -14.441406 "/></g></g></g><g fill="#b4918f" fill-opacity="1"><g transform="translate(126.150736, 220.107319)"><g><path d="M 19.597656 -10.40625 C 19.175781 -10.59375 18.613281 -10.40625 18.425781 -9.984375 C 14.863281 -2.71875 12.1875 -0.421875 10.921875 -0.65625 C 10.40625 -0.75 8.71875 -1.734375 8.296875 -9.9375 C 8.296875 -10.3125 8.015625 -10.640625 7.6875 -10.734375 C 7.3125 -10.828125 6.890625 -10.734375 6.703125 -10.40625 C 6.421875 -10.078125 6.140625 -9.703125 5.859375 -9.28125 C 4.6875 -7.6875 3.140625 -5.53125 1.265625 -3.515625 C 0.984375 -3.1875 0.75 -3 0.609375 -2.90625 C 0.28125 -4.546875 2.015625 -10.828125 4.78125 -12.800781 C 5.578125 -13.363281 6.65625 -13.785156 8.109375 -12.09375 C 8.4375 -11.71875 9 -11.671875 9.375 -12 C 9.75 -12.285156 9.796875 -12.894531 9.515625 -13.269531 C 7.734375 -15.332031 6.046875 -15.285156 4.921875 -14.910156 C 1.3125 -13.644531 -1.125 -6.703125 -1.21875 -3.515625 C -1.265625 -2.203125 -0.890625 -1.359375 -0.140625 -1.078125 C 1.03125 -0.609375 2.203125 -1.875 2.578125 -2.296875 C 4.171875 -4.03125 5.625 -5.90625 6.65625 -7.359375 C 7.171875 -2.015625 8.4375 0.65625 10.546875 1.125 C 10.734375 1.125 10.921875 1.171875 11.109375 1.171875 C 14.300781 1.171875 17.722656 -4.40625 20.019531 -9.1875 C 20.253906 -9.65625 20.066406 -10.171875 19.597656 -10.40625 Z M 19.597656 -10.40625 "/></g></g></g><g fill="#b4918f" fill-opacity="1"><g transform="translate(143.588235, 220.107319)"><g><path d="M 18.847656 -10.453125 C 18.425781 -10.6875 17.863281 -10.546875 17.628906 -10.078125 C 16.503906 -8.15625 13.550781 -2.953125 11.859375 -3.140625 C 11.53125 -3.1875 10.59375 -3.65625 9.65625 -6.9375 C 9 -9.234375 8.109375 -11.390625 6.375 -11.484375 C 5.109375 -11.578125 3.703125 -10.59375 1.546875 -6.5625 C 2.109375 -8.578125 2.71875 -10.59375 3.1875 -12.238281 C 3.375 -12.847656 3.515625 -13.363281 3.65625 -13.878906 C 3.796875 -14.347656 3.515625 -14.863281 3.046875 -15.003906 C 2.578125 -15.144531 2.0625 -14.863281 1.921875 -14.347656 C 1.78125 -13.878906 1.640625 -13.316406 1.453125 -12.753906 C 0.234375 -8.578125 -1.59375 -2.25 -2.0625 1.59375 C -2.109375 2.015625 -1.828125 2.4375 -1.40625 2.53125 C -1.3125 2.578125 -1.265625 2.578125 -1.171875 2.578125 C -0.796875 2.578125 -0.46875 2.34375 -0.328125 2.015625 C 4.078125 -8.953125 5.859375 -9.703125 6.28125 -9.703125 C 6.375 -9.703125 7.03125 -9.515625 7.921875 -6.421875 C 8.859375 -3.1875 10.078125 -1.546875 11.671875 -1.359375 C 14.066406 -1.078125 16.222656 -4.03125 19.175781 -9.1875 C 19.457031 -9.65625 19.269531 -10.171875 18.847656 -10.453125 Z M 18.847656 -10.453125 "/></g></g></g><g fill="#b4918f" fill-opacity="1"><g transform="translate(160.322609, 220.107319)"><g><path d="M 19.597656 -10.40625 C 19.175781 -10.59375 18.613281 -10.40625 18.425781 -9.984375 C 14.863281 -2.71875 12.1875 -0.421875 10.921875 -0.65625 C 10.40625 -0.75 8.71875 -1.734375 8.296875 -9.9375 C 8.296875 -10.3125 8.015625 -10.640625 7.6875 -10.734375 C 7.3125 -10.828125 6.890625 -10.734375 6.703125 -10.40625 C 6.421875 -10.078125 6.140625 -9.703125 5.859375 -9.28125 C 4.6875 -7.6875 3.140625 -5.53125 1.265625 -3.515625 C 0.984375 -3.1875 0.75 -3 0.609375 -2.90625 C 0.28125 -4.546875 2.015625 -10.828125 4.78125 -12.800781 C 5.578125 -13.363281 6.65625 -13.785156 8.109375 -12.09375 C 8.4375 -11.71875 9 -11.671875 9.375 -12 C 9.75 -12.285156 9.796875 -12.894531 9.515625 -13.269531 C 7.734375 -15.332031 6.046875 -15.285156 4.921875 -14.910156 C 1.3125 -13.644531 -1.125 -6.703125 -1.21875 -3.515625 C -1.265625 -2.203125 -0.890625 -1.359375 -0.140625 -1.078125 C 1.03125 -0.609375 2.203125 -1.875 2.578125 -2.296875 C 4.171875 -4.03125 5.625 -5.90625 6.65625 -7.359375 C 7.171875 -2.015625 8.4375 0.65625 10.546875 1.125 C 10.734375 1.125 10.921875 1.171875 11.109375 1.171875 C 14.300781 1.171875 17.722656 -4.40625 20.019531 -9.1875 C 20.253906 -9.65625 20.066406 -10.171875 19.597656 -10.40625 Z M 19.597656 -10.40625 "/></g></g></g><g fill="#b4918f" fill-opacity="1"><g transform="translate(177.760108, 220.107319)"><g/></g></g><g fill="#b4918f" fill-opacity="1"><g transform="translate(192.150732, 220.107319)"><g><path d="M 38.070312 -10.921875 C 37.601562 -11.109375 37.085938 -10.921875 36.898438 -10.453125 C 31.550781 0.890625 26.394531 9.234375 21.519531 14.347656 C 17.394531 18.660156 13.691406 20.441406 10.734375 19.550781 C 8.0625 18.707031 6 15.566406 4.96875 10.6875 C 3.796875 5.4375 3.84375 -1.3125 5.0625 -8.8125 C 6.796875 -19.503906 11.8125 -34.644531 17.675781 -41.679688 C 19.410156 -43.742188 20.910156 -44.726562 21.800781 -44.257812 C 24.003906 -43.179688 24.894531 -34.222656 20.066406 -12.519531 C 19.925781 -12.046875 20.253906 -11.578125 20.722656 -11.4375 C 21.238281 -11.34375 21.707031 -11.671875 21.800781 -12.140625 C 24.941406 -26.160156 27.613281 -43.414062 22.597656 -45.898438 C 21.378906 -46.507812 19.316406 -46.460938 16.316406 -42.851562 C 12.566406 -38.351562 9.703125 -31.644531 7.96875 -26.769531 C 5.859375 -21.003906 4.171875 -14.535156 3.28125 -9.09375 C 0.65625 6.984375 3.46875 19.175781 10.21875 21.285156 C 10.875 21.472656 11.578125 21.566406 12.285156 21.566406 C 19.691406 21.566406 29.113281 10.40625 38.492188 -9.703125 C 38.726562 -10.171875 38.539062 -10.6875 38.070312 -10.921875 Z M 38.070312 -10.921875 "/></g></g></g><g fill="#b4918f" fill-opacity="1"><g transform="translate(228.338229, 220.107319)"><g><path d="M 2.71875 -2.0625 C 1.734375 -1.78125 0.796875 -0.234375 2.015625 -0.140625 C 4.171875 0 4.59375 -2.625 2.71875 -2.0625 Z M 2.71875 -2.0625 "/></g></g></g><g fill="#b4918f" fill-opacity="1"><g transform="translate(234.619479, 220.107319)"><g/></g></g><g fill="#b4918f" fill-opacity="1"><g transform="translate(249.010103, 220.107319)"><g><path d="M 36.285156 -45.101562 C 32.160156 -47.632812 25.972656 -47.257812 19.832031 -44.351562 C 19.972656 -45.054688 20.113281 -45.757812 20.207031 -46.367188 C 20.300781 -46.835938 19.972656 -47.304688 19.503906 -47.398438 C 18.988281 -47.492188 18.519531 -47.164062 18.425781 -46.648438 C 18.285156 -45.664062 18.050781 -44.539062 17.816406 -43.273438 C 16.832031 -42.757812 15.847656 -42.101562 14.910156 -41.445312 C 7.359375 -36.003906 0.234375 -25.972656 2.90625 -13.972656 C 3 -13.503906 3.46875 -13.175781 3.984375 -13.316406 C 4.453125 -13.410156 4.78125 -13.878906 4.640625 -14.394531 C 2.15625 -25.503906 8.859375 -34.878906 15.941406 -39.945312 C 16.410156 -40.273438 16.878906 -40.601562 17.347656 -40.929688 C 16.457031 -36.378906 15.285156 -30.660156 14.019531 -24.378906 C 10.125 -5.15625 7.78125 6.796875 6.515625 14.300781 C 6.09375 13.691406 5.8125 12.894531 5.71875 11.90625 C 5.625 11.390625 5.203125 11.0625 4.6875 11.109375 C 4.21875 11.15625 3.84375 11.625 3.890625 12.09375 C 4.125 14.113281 4.921875 15.566406 6.140625 16.457031 C 4.59375 25.878906 5.109375 26.675781 6.046875 26.957031 C 6.140625 27.003906 6.28125 27.003906 6.375 27.003906 C 7.265625 27.003906 7.875 25.832031 8.859375 23.441406 C 9.046875 22.972656 8.859375 22.457031 8.390625 22.269531 C 7.921875 22.082031 7.40625 22.269531 7.21875 22.738281 C 7.125 22.925781 7.078125 23.066406 7.03125 23.207031 C 7.171875 21.707031 7.453125 19.644531 7.828125 17.160156 C 8.203125 17.207031 8.578125 17.253906 9 17.300781 C 9.046875 17.300781 9.09375 17.300781 9.09375 17.300781 C 13.925781 17.300781 21.050781 12.1875 27.285156 4.265625 C 34.691406 -5.0625 39.664062 -16.785156 41.398438 -28.597656 C 42.898438 -38.773438 39.429688 -43.179688 36.285156 -45.101562 Z M 39.617188 -28.878906 C 37.367188 -13.316406 30.050781 -2.109375 25.878906 3.1875 C 19.175781 11.671875 12.613281 15.472656 9.09375 15.472656 C 9.09375 15.472656 9.046875 15.472656 9.046875 15.472656 C 8.71875 15.472656 8.4375 15.425781 8.15625 15.378906 C 9.9375 4.828125 13.269531 -11.671875 15.800781 -24.003906 C 17.207031 -31.035156 18.519531 -37.367188 19.410156 -42.101562 C 25.363281 -45.289062 31.457031 -45.898438 35.347656 -43.554688 C 39.195312 -41.210938 40.695312 -36.144531 39.617188 -28.878906 Z M 39.617188 -28.878906 "/></g></g></g><g fill="#b4918f" fill-opacity="1"><g transform="translate(288.900725, 220.107319)"><g><path d="M 18.660156 -10.125 C 18.238281 -10.359375 17.675781 -10.21875 17.441406 -9.796875 C 12.988281 -2.671875 9.234375 0.515625 8.4375 0.234375 C 8.4375 0.234375 7.5 -0.28125 8.390625 -5.671875 C 8.71875 -7.5 8.859375 -8.53125 7.96875 -8.90625 C 7.125 -9.234375 6.609375 -8.53125 5.625 -7.125 C 4.828125 -6 3.75 -4.5 2.578125 -3.46875 C 2.4375 -3.375 1.921875 -2.90625 1.6875 -3.09375 C 0.984375 -3.65625 0.84375 -6.703125 2.484375 -9.515625 C 2.765625 -9.9375 2.578125 -10.5 2.15625 -10.78125 C 1.734375 -11.015625 1.171875 -10.875 0.9375 -10.453125 C -0.9375 -7.171875 -1.125 -3.09375 0.515625 -1.734375 C 0.9375 -1.359375 2.109375 -0.703125 3.75 -2.0625 C 4.828125 -3 5.765625 -4.21875 6.515625 -5.25 C 5.859375 -0.890625 6.234375 1.3125 7.78125 1.921875 C 8.015625 2.015625 8.25 2.015625 8.4375 2.015625 C 12 2.015625 17.769531 -6.984375 18.941406 -8.859375 C 19.222656 -9.28125 19.082031 -9.84375 18.660156 -10.125 Z M 18.660156 -10.125 "/></g></g></g><g fill="#b4918f" fill-opacity="1"><g transform="translate(305.681974, 220.107319)"><g><path d="M 20.582031 -10.59375 C 20.113281 -10.828125 19.550781 -10.640625 19.363281 -10.171875 C 13.972656 1.171875 8.859375 6.984375 7.734375 6.796875 C 7.640625 6.75 6 5.15625 11.296875 -11.109375 C 11.4375 -11.53125 11.765625 -12.519531 11.015625 -13.035156 C 10.3125 -13.597656 9.515625 -13.082031 8.203125 -12.1875 C 6.796875 -11.296875 4.875 -10.03125 3.375 -10.21875 C 8.15625 -18.472656 7.6875 -20.300781 6.609375 -21.003906 C 4.921875 -21.988281 2.484375 -19.128906 1.359375 -17.488281 C -0.9375 -13.925781 -0.890625 -10.6875 1.546875 -9.046875 C 4.03125 -7.3125 7.265625 -9.421875 9.1875 -10.6875 C 9.234375 -10.734375 9.234375 -10.734375 9.28125 -10.78125 C 7.453125 -5.015625 6.28125 -0.46875 5.859375 2.671875 C 5.34375 6.140625 5.71875 7.96875 7.03125 8.484375 C 7.265625 8.53125 7.453125 8.578125 7.6875 8.578125 C 11.4375 8.578125 17.957031 -2.953125 21.003906 -9.375 C 21.191406 -9.84375 21.003906 -10.40625 20.582031 -10.59375 Z M 1.640625 -13.832031 C 2.296875 -16.363281 4.5 -18.707031 5.484375 -19.269531 C 5.390625 -18.519531 4.875 -16.410156 1.875 -11.203125 C 1.546875 -11.71875 1.3125 -12.519531 1.640625 -13.832031 Z M 1.640625 -13.832031 "/></g></g></g><g fill="#b4918f" fill-opacity="1"><g transform="translate(324.385098, 220.107319)"><g><path d="M 19.597656 -8.859375 C 19.128906 -9.046875 18.613281 -8.859375 18.378906 -8.4375 C 14.863281 -1.171875 12.140625 1.125 10.875 0.890625 C 10.40625 0.796875 8.671875 -0.1875 8.25 -8.34375 C 8.25 -8.71875 7.96875 -9.046875 7.640625 -9.1875 C 7.265625 -9.28125 6.890625 -9.140625 6.65625 -8.859375 C 6.375 -8.484375 6.046875 -8.0625 5.671875 -7.546875 C 4.546875 -6 3 -3.890625 1.21875 -1.96875 C 0.9375 -1.640625 0.703125 -1.453125 0.5625 -1.359375 C 0.28125 -3 1.96875 -9.28125 4.78125 -11.296875 C 5.53125 -11.859375 6.609375 -12.285156 8.0625 -10.546875 C 8.390625 -10.171875 8.953125 -10.125 9.328125 -10.453125 C 9.75 -10.78125 9.796875 -11.34375 9.46875 -11.71875 C 7.6875 -13.785156 6 -13.738281 4.875 -13.363281 C 1.265625 -12.09375 -1.171875 -5.203125 -1.21875 -2.015625 C -1.265625 -0.65625 -0.890625 0.140625 -0.140625 0.46875 C 0.984375 0.9375 2.15625 -0.328125 2.578125 -0.75 C 4.171875 -2.484375 5.53125 -4.3125 6.65625 -5.8125 C 7.171875 -0.46875 8.4375 2.203125 10.546875 2.671875 C 10.734375 2.671875 10.875 2.71875 11.0625 2.71875 C 14.300781 2.71875 17.675781 -2.8125 20.019531 -7.640625 C 20.207031 -8.0625 20.019531 -8.625 19.597656 -8.859375 Z M 5.53125 -16.222656 C 5.71875 -16.082031 5.90625 -15.988281 6.09375 -15.988281 C 6.375 -15.988281 6.65625 -16.128906 6.796875 -16.363281 L 9.84375 -20.113281 C 10.171875 -20.488281 10.078125 -21.050781 9.703125 -21.378906 C 9.328125 -21.707031 8.71875 -21.613281 8.4375 -21.238281 L 5.390625 -17.488281 C 5.109375 -17.066406 5.15625 -16.503906 5.53125 -16.222656 Z M 5.53125 -16.222656 "/></g></g></g><g fill="#b4918f" fill-opacity="1"><g transform="translate(341.775722, 220.107319)"><g><path d="M 18.847656 -10.453125 C 18.425781 -10.6875 17.863281 -10.546875 17.628906 -10.078125 C 16.503906 -8.15625 13.550781 -2.953125 11.859375 -3.140625 C 11.53125 -3.1875 10.59375 -3.65625 9.65625 -6.9375 C 9 -9.234375 8.109375 -11.390625 6.375 -11.484375 C 5.109375 -11.578125 3.703125 -10.59375 1.546875 -6.5625 C 2.109375 -8.578125 2.71875 -10.59375 3.1875 -12.238281 C 3.375 -12.847656 3.515625 -13.363281 3.65625 -13.878906 C 3.796875 -14.347656 3.515625 -14.863281 3.046875 -15.003906 C 2.578125 -15.144531 2.0625 -14.863281 1.921875 -14.347656 C 1.78125 -13.878906 1.640625 -13.316406 1.453125 -12.753906 C 0.234375 -8.578125 -1.59375 -2.25 -2.0625 1.59375 C -2.109375 2.015625 -1.828125 2.4375 -1.40625 2.53125 C -1.3125 2.578125 -1.265625 2.578125 -1.171875 2.578125 C -0.796875 2.578125 -0.46875 2.34375 -0.328125 2.015625 C 4.078125 -8.953125 5.859375 -9.703125 6.28125 -9.703125 C 6.375 -9.703125 7.03125 -9.515625 7.921875 -6.421875 C 8.859375 -3.1875 10.078125 -1.546875 11.671875 -1.359375 C 14.066406 -1.078125 16.222656 -4.03125 19.175781 -9.1875 C 19.457031 -9.65625 19.269531 -10.171875 18.847656 -10.453125 Z M 18.847656 -10.453125 "/></g></g></g><g fill="#b4918f" fill-opacity="1"><g transform="translate(24.857555, 179.899236)"><g><path d="M 19.785156 -10.5 C 19.363281 -10.734375 18.800781 -10.59375 18.519531 -10.171875 C 16.035156 -6.140625 12.140625 -2.53125 7.453125 0.234375 C 9.46875 -2.53125 10.453125 -5.671875 10.40625 -7.59375 C 10.359375 -9.375 9.515625 -9.890625 9 -10.03125 C 7.546875 -10.5 5.625 -9.046875 3.1875 -5.578125 C 2.34375 -4.453125 1.5 -2.953125 0.609375 -1.171875 C 2.015625 -7.59375 3.9375 -15.988281 5.390625 -22.269531 C 11.625 -33.472656 14.816406 -41.914062 13.503906 -43.742188 C 13.222656 -44.164062 12.753906 -44.304688 12.285156 -44.210938 C 10.265625 -43.835938 7.125 -36.992188 5.015625 -28.316406 C 4.640625 -27.003906 4.21875 -25.082031 3.703125 -22.878906 C 3.65625 -22.785156 3.65625 -22.691406 3.609375 -22.597656 C 1.078125 -11.71875 -3.046875 6.65625 -3.09375 8.203125 C -3.140625 8.671875 -2.8125 9.046875 -2.34375 9.140625 C -2.296875 9.140625 -2.25 9.140625 -2.203125 9.140625 C -1.828125 9.140625 -1.453125 8.90625 -1.359375 8.484375 C -0.9375 7.265625 -0.515625 6.046875 -0.046875 4.828125 C 0.1875 5.15625 0.609375 5.34375 1.03125 5.203125 C 5.859375 3.46875 14.769531 -0.65625 20.066406 -9.234375 C 20.300781 -9.65625 20.207031 -10.21875 19.785156 -10.5 Z M 11.953125 -41.632812 C 11.578125 -39.757812 10.265625 -35.722656 7.125 -29.394531 C 8.90625 -36.191406 10.828125 -40.039062 11.953125 -41.632812 Z M 0.46875 3.46875 C 1.828125 0.234375 3.328125 -2.71875 4.640625 -4.546875 C 7.171875 -8.109375 8.296875 -8.296875 8.4375 -8.296875 C 8.53125 -8.203125 8.765625 -7.59375 8.484375 -6.1875 C 7.875 -3.28125 5.296875 1.6875 0.46875 3.46875 Z M 0.46875 3.46875 "/></g></g></g><g fill="#b4918f" fill-opacity="1"><g transform="translate(42.482554, 179.899236)"><g><path d="M 22.925781 -10.3125 C 22.644531 -10.734375 22.082031 -10.828125 21.660156 -10.546875 C 17.628906 -7.921875 13.503906 -5.015625 9.5625 -1.359375 C 10.125 -4.828125 10.6875 -8.53125 11.203125 -12.425781 C 11.296875 -12.847656 11.015625 -13.269531 10.59375 -13.410156 C 10.21875 -13.550781 9.75 -13.363281 9.5625 -12.988281 C 8.625 -11.390625 6.5625 -8.109375 4.734375 -5.90625 C 4.078125 -5.109375 3.421875 -4.6875 3.09375 -4.921875 C 2.296875 -5.390625 1.734375 -8.625 3.5625 -13.082031 C 3.75 -13.550781 3.515625 -14.066406 3.09375 -14.253906 C 2.625 -14.441406 2.109375 -14.207031 1.921875 -13.738281 C 0 -9.046875 0.09375 -4.59375 2.203125 -3.375 C 2.71875 -3 4.21875 -2.484375 6.09375 -4.734375 C 7.078125 -5.90625 8.015625 -7.21875 8.859375 -8.484375 C 8.390625 -5.25 7.921875 -2.15625 7.40625 0.796875 C 3.46875 4.828125 -0.234375 9.703125 -3.421875 15.894531 C -8.765625 26.160156 -9.75 37.554688 -7.078125 40.835938 C -6.5625 41.492188 -5.90625 41.820312 -5.203125 41.820312 C -4.96875 41.820312 -4.78125 41.773438 -4.546875 41.726562 C -1.5 40.835938 1.21875 34.082031 3 28.550781 C 5.203125 21.660156 7.21875 12.660156 9.09375 1.640625 C 13.457031 -2.71875 18.097656 -6.09375 22.644531 -9.046875 C 23.066406 -9.328125 23.207031 -9.890625 22.925781 -10.3125 Z M 1.265625 27.988281 C -2.109375 38.679688 -4.546875 39.851562 -5.015625 39.992188 C -5.203125 40.039062 -5.390625 40.039062 -5.671875 39.710938 C -7.359375 37.648438 -7.5 27.660156 -1.828125 16.691406 C 0.796875 11.671875 3.703125 7.546875 6.84375 4.03125 C 5.15625 13.738281 3.28125 21.753906 1.265625 27.988281 Z M 1.265625 27.988281 "/></g></g></g></svg>